<?xml version="1.0" standalone="no"?>
<svg xmlns="http://www.w3.org/2000/svg" viewBox="0 0 118.266 36" width="118.266" height="36"><g fill="#ff0000" color="#ff0000" transform="translate(90.266, 3.9999999999999982) scale(0.2800001)"><svg width="100.0" height="100.0" x="0.0" y="0.0" viewBox="0 0 100 100"><path d="M64.721,93H52V78.423c6-1.013,10.697-6.25,10.744-12.571l5.108-60.696c0.05-0.592-0.146-1.105-0.548-1.542  S66.339,3,65.744,3h-31.67c-0.595,0-1.162,0.176-1.564,0.613c-0.402,0.438-0.603,0.987-0.553,1.58l5.21,60.677  C37.211,72.191,42,77.41,48,78.423V93H35.097c-1.174,0-2.125,0.826-2.125,2s0.951,2,2.125,2h29.624c1.174,0,2.125-0.826,2.125-2  S65.895,93,64.721,93z M41.308,65.759c0-0.06-0.002-0.171-0.007-0.229L36.385,7h27.048l-4.914,58.529  c-0.005,0.059-0.008,0.145-0.008,0.204c0,4.744-3.858,8.617-8.601,8.617C45.167,74.351,41.308,70.503,41.308,65.759z"></path></svg></g><path fill="#000000" fill-rule="nonzero" d="M1.58 0.64L0 0.53L0 0L6.88 0L6.88 0.53L5.06 0.64L9.01 7.76L9.07 7.76L12.38 0.64L10.72 0.53L10.72 0L14.63 0L14.63 0.53L13.17 0.64L9.52 8.48L9.52 16.08L11.32 16.20L11.32 16.72L4.72 16.72L4.72 16.20L6.52 16.08L6.52 9.18L1.58 0.64ZM14.17 10.91L14.17 10.91Q14.17 9.14 14.85 7.70Q15.54 6.26 16.78 5.43Q18.01 4.61 19.57 4.61L19.57 4.61Q20.86 4.61 21.90 5.14Q22.93 5.67 23.56 6.56Q24.19 7.45 24.52 8.55Q24.86 9.64 24.86 10.84L24.86 10.84Q24.86 12.56 24.20 13.98Q23.54 15.40 22.32 16.24Q21.09 17.07 19.55 17.07L19.55 17.07Q18.18 17.07 17.13 16.59Q16.08 16.10 15.44 15.24Q14.80 14.38 14.48 13.29Q14.17 12.20 14.17 10.91ZM17.17 10.77L17.17 10.77Q17.17 12.07 17.30 13.10Q17.43 14.12 17.70 14.91Q17.96 15.70 18.42 16.13Q18.88 16.55 19.50 16.55L19.50 16.55Q21.86 16.55 21.86 10.91L21.86 10.91Q21.86 9.49 21.74 8.47Q21.63 7.45 21.37 6.67Q21.11 5.89 20.64 5.51Q20.17 5.13 19.50 5.13L19.50 5.13Q18.88 5.13 18.42 5.55Q17.96 5.98 17.70 6.75Q17.43 7.52 17.30 8.52Q17.17 9.52 17.17 10.77ZM26.11 5.74L25.46 5.74L25.58 0L38.38 0L38.50 5.73L37.85 5.73Q37.69 4.83 37.56 4.28Q37.44 3.73 37.27 3.12Q37.09 2.51 36.90 2.17Q36.71 1.83 36.45 1.49Q36.18 1.15 35.83 0.99Q35.48 0.83 35.03 0.73Q34.57 0.63 33.97 0.63L33.97 0.63Q33.93 0.63 33.78 0.64Q33.63 0.64 33.52 0.64L33.52 0.64L33.52 16.08L35.33 16.20L35.33 16.72L28.72 16.72L28.72 16.20L30.52 16.08L30.45 0.66Q30.33 0.66 30.18 0.65Q30.04 0.64 29.99 0.64L29.99 0.64Q29.46 0.64 29.05 0.70Q28.64 0.76 28.31 0.93Q27.97 1.09 27.73 1.28Q27.48 1.46 27.27 1.82Q27.06 2.17 26.91 2.50Q26.77 2.82 26.61 3.39Q26.45 3.96 26.11 5.74L26.11 5.74ZM39.11 10.91L39.11 10.91Q39.11 9.14 39.79 7.70Q40.48 6.26 41.71 5.43Q42.95 4.61 44.51 4.61L44.51 4.61Q45.80 4.61 46.83 5.14Q47.87 5.67 48.50 6.56Q49.13 7.45 49.46 8.55Q49.79 9.64 49.79 10.84L49.79 10.84Q49.79 12.56 49.14 13.98Q48.48 15.40 47.26 16.24Q46.03 17.07 44.48 17.07L44.48 17.07Q43.11 17.07 42.06 16.59Q41.02 16.10 40.38 15.24Q39.74 14.38 39.42 13.29Q39.11 12.20 39.11 10.91ZM42.11 10.77L42.11 10.77Q42.11 12.07 42.23 13.10Q42.36 14.12 42.63 14.91Q42.90 15.70 43.36 16.13Q43.82 16.55 44.44 16.55L44.44 16.55Q46.79 16.55 46.79 10.91L46.79 10.91Q46.79 9.49 46.68 8.47Q46.57 7.45 46.31 6.67Q46.04 5.89 45.57 5.51Q45.11 5.13 44.44 5.13L44.44 5.13Q43.82 5.13 43.36 5.55Q42.90 5.98 42.63 6.75Q42.36 7.52 42.23 8.52Q42.11 9.52 42.11 10.77ZM52.83 5.89L51.39 5.89L51.39 5.41L53.84 5.16L55.49 4.72L55.65 5.06L55.65 6.64L55.70 6.64Q57.09 4.61 59.06 4.61L59.06 4.61Q59.47 4.61 59.86 4.69Q60.25 4.78 60.67 5.00Q61.10 5.21 61.45 5.68Q61.80 6.14 62.00 6.80L62.00 6.80L62.03 6.80Q63.60 4.61 65.68 4.61L65.68 4.61Q66.09 4.61 66.48 4.68Q66.87 4.76 67.32 5.02Q67.77 5.27 68.10 5.68Q68.43 6.09 68.65 6.84Q68.87 7.58 68.87 8.57L68.87 8.57L68.87 16.13L70.08 16.24L70.08 16.72L64.79 16.72L64.79 16.24L65.99 16.13L65.99 8.16Q65.99 7.46 65.87 6.97Q65.74 6.47 65.58 6.22Q65.43 5.98 65.19 5.84Q64.96 5.71 64.82 5.68Q64.68 5.66 64.50 5.66L64.50 5.66Q63.71 5.66 62.97 6.53Q62.23 7.39 62.23 8.91L62.23 8.91L62.23 16.13L63.43 16.24L63.43 16.72L58.15 16.72L58.15 16.24L59.34 16.13L59.34 8.16Q59.34 7.46 59.23 6.97Q59.11 6.47 58.95 6.22Q58.79 5.98 58.56 5.84Q58.34 5.71 58.20 5.68Q58.05 5.66 57.88 5.66L57.88 5.66Q57.13 5.66 56.41 6.67Q55.70 7.68 55.70 9.14L55.70 9.14L55.70 16.13L56.91 16.24L56.91 16.72L51.62 16.72L51.62 16.24L52.83 16.13L52.83 5.89ZM71.58 10.91L71.58 10.91Q71.58 9.14 72.26 7.70Q72.95 6.26 74.19 5.43Q75.42 4.61 76.98 4.61L76.98 4.61Q78.27 4.61 79.31 5.14Q80.34 5.67 80.97 6.56Q81.60 7.45 81.93 8.55Q82.27 9.64 82.27 10.84L82.27 10.84Q82.27 12.56 81.61 13.98Q80.95 15.40 79.73 16.24Q78.50 17.07 76.96 17.07L76.96 17.07Q75.59 17.07 74.54 16.59Q73.49 16.10 72.85 15.24Q72.21 14.38 71.89 13.29Q71.58 12.20 71.58 10.91ZM74.58 10.77L74.58 10.77Q74.58 12.07 74.71 13.10Q74.84 14.12 75.11 14.91Q75.38 15.70 75.83 16.13Q76.29 16.55 76.91 16.55L76.91 16.55Q79.27 16.55 79.27 10.91L79.27 10.91Q79.27 9.49 79.15 8.47Q79.04 7.45 78.78 6.67Q78.52 5.89 78.05 5.51Q77.58 5.13 76.91 5.13L76.91 5.13Q76.29 5.13 75.83 5.55Q75.38 5.98 75.11 6.75Q74.84 7.52 74.71 8.52Q74.58 9.52 74.58 10.77Z" transform="translate(0, 9.463)"></path></svg>