<?xml version="1.0" standalone="no"?>
<svg xmlns="http://www.w3.org/2000/svg" viewBox="0 0 106.584 36" width="106.584" height="36"><g fill="#ff0011" color="#ff0011" transform="translate(78.584, 3.9999999999999982) scale(0.2800001)"><svg width="100.0" height="100.0" x="0.0" y="0.0" viewBox="0 0 100 100"><g><path d="M51.32,79.838l-2.769-0.592V26.418c0-3.921,3.191-7.11,7.111-7.11h36.892v55.597H55.784   C54.244,74.904,52.21,77.848,51.32,79.838z M55.664,22.2c-2.325,0-4.219,1.893-4.219,4.218V74.36   c1.164-1.282,2.643-2.348,4.339-2.348h33.877V22.2H55.664z"></path><g><path d="M50.193,24.972h-0.387C49.929,25.434,50,25.917,50,26.418C50,25.917,50.071,25.434,50.193,24.972z"></path><path d="M91.107,24.972v2.893h3.299v49.935H50.761C50.279,78.628,50,79.246,50,79.246s-0.279-0.618-0.761-1.447H5.595V27.864    h3.298v-2.893H2.7v55.72h94.6v-55.72H91.107z"></path></g><path d="M48.681,79.838c-0.896-1.988-2.934-4.934-4.465-4.934H7.445V19.308h36.891c3.921,0,7.109,3.189,7.109,7.11v52.828   L48.681,79.838z M10.34,72.014h33.876c1.697,0,3.174,1.064,4.337,2.348V26.418c0-2.325-1.891-4.218-4.217-4.218H10.34V72.014z"></path></g></svg></g><path fill="#000" fill-rule="nonzero" d="M6.31 4.18L6.31 4.18L9.48 9.60L14.50 1.13L12.55 0.89Q12.46 0.53 12.55 0L12.55 0Q13.87 0.10 15.19 0.10L15.19 0.10Q16.34 0.10 17.88 0.02L17.88 0.02Q18.02 0.46 17.88 0.89L17.88 0.89L16.39 1.18Q15.36 2.35 14.81 3.31L14.81 3.31L10.10 10.99L10.10 18.12L12.05 18.36Q12.14 18.72 12.05 19.25L12.05 19.25Q10.54 19.18 8.76 19.18L8.76 19.18Q7.46 19.18 5.45 19.22L5.45 19.22Q5.30 18.79 5.45 18.36L5.45 18.36L7.44 18.07Q7.54 17.16 7.54 15.26L7.54 15.26L7.54 10.92L1.80 1.13L0.10 0.89Q0 0.53 0.10 0L0.10 0Q1.42 0.10 3.70 0.10L3.70 0.10Q5.78 0.10 7.34 0.02L7.34 0.02Q7.49 0.46 7.34 0.89L7.34 0.89L4.99 1.34Q5.74 3.19 6.31 4.18ZM15.84 12.79L15.84 12.79Q15.84 11.35 16.26 10.09Q16.68 8.83 17.47 7.90Q18.26 6.96 19.38 6.42Q20.50 5.88 21.89 5.88L21.89 5.88Q23.26 5.88 24.38 6.42Q25.51 6.96 26.32 7.90Q27.12 8.83 27.55 10.09Q27.98 11.35 27.98 12.79L27.98 12.79Q27.98 14.28 27.54 15.53Q27.10 16.78 26.29 17.70Q25.49 18.62 24.36 19.14Q23.23 19.66 21.89 19.66L21.89 19.66Q20.47 19.66 19.36 19.15Q18.24 18.65 17.46 17.74Q16.68 16.82 16.26 15.56Q15.84 14.30 15.84 12.79ZM19.34 8.38L19.34 8.38Q18.31 9.84 18.31 12.79L18.31 12.79Q18.31 14.26 18.59 15.36Q18.86 16.46 19.34 17.20Q19.82 17.93 20.47 18.29Q21.12 18.65 21.89 18.65L21.89 18.65Q22.63 18.65 23.30 18.29Q23.98 17.93 24.46 17.20Q24.94 16.46 25.22 15.36Q25.51 14.26 25.51 12.79L25.51 12.79Q25.51 11.33 25.22 10.21Q24.94 9.10 24.44 8.36Q23.95 7.63 23.29 7.26Q22.63 6.89 21.89 6.89L21.89 6.89Q20.40 6.89 19.34 8.38ZM44.23 19.18L33.10 19.18L29.66 19.25Q29.52 18.82 29.66 18.38L29.66 18.38L31.66 18.12Q31.75 16.90 31.75 15.29L31.75 15.29L31.75 1.13L29.81 0.89Q29.71 0.53 29.81 0L29.81 0Q31.13 0.10 33.10 0.10L33.10 0.10Q34.85 0.10 36.41 0.02L36.41 0.02Q36.55 0.46 36.41 0.89L36.41 0.89L34.42 1.18Q34.32 2.09 34.32 3.98L34.32 3.98L34.32 17.95L42.24 17.95L43.37 13.61Q43.73 13.51 44.26 13.61L44.26 13.61L44.23 19.18ZM55.92 12.41L55.92 12.41L48.38 12.41Q48.17 18.53 52.06 18.53L52.06 18.53Q53.71 18.53 55.44 17.06L55.44 17.06Q55.80 17.28 55.99 17.81L55.99 17.81Q54.34 19.66 51.79 19.66L51.79 19.66Q45.94 19.66 45.94 12.77L45.94 12.77Q45.94 9.50 47.66 7.69Q49.39 5.88 51.70 5.88L51.70 5.88Q54.22 5.88 55.32 7.63Q56.42 9.38 56.42 12.19L56.42 12.19Q56.18 12.38 55.92 12.41ZM51.65 6.84L51.65 6.84Q50.40 6.84 49.52 8.14Q48.65 9.43 48.46 11.45L48.46 11.45L51.43 11.45Q53.21 11.45 53.98 11.23L53.98 11.23Q53.98 9.26 53.38 8.05Q52.78 6.84 51.65 6.84ZM58.49 12.79L58.49 12.79Q58.49 11.35 58.91 10.09Q59.33 8.83 60.12 7.90Q60.91 6.96 62.03 6.42Q63.14 5.88 64.54 5.88L64.54 5.88Q65.90 5.88 67.03 6.42Q68.16 6.96 68.96 7.90Q69.77 8.83 70.20 10.09Q70.63 11.35 70.63 12.79L70.63 12.79Q70.63 14.28 70.19 15.53Q69.74 16.78 68.94 17.70Q68.14 18.62 67.01 19.14Q65.88 19.66 64.54 19.66L64.54 19.66Q63.12 19.66 62.00 19.15Q60.89 18.65 60.11 17.74Q59.33 16.82 58.91 15.56Q58.49 14.30 58.49 12.79ZM61.99 8.38L61.99 8.38Q60.96 9.84 60.96 12.79L60.96 12.79Q60.96 14.26 61.24 15.36Q61.51 16.46 61.99 17.20Q62.47 17.93 63.12 18.29Q63.77 18.65 64.54 18.65L64.54 18.65Q65.28 18.65 65.95 18.29Q66.62 17.93 67.10 17.20Q67.58 16.46 67.87 15.36Q68.16 14.26 68.16 12.79L68.16 12.79Q68.16 11.33 67.87 10.21Q67.58 9.10 67.09 8.36Q66.60 7.63 65.94 7.26Q65.28 6.89 64.54 6.89L64.54 6.89Q63.05 6.89 61.99 8.38Z" transform="translate(0, 8.172)"></path></svg>