<?xml version="1.0" standalone="no"?>
<!DOCTYPE svg PUBLIC "-//W3C//DTD SVG 20010904//EN"
 "http://www.w3.org/TR/2001/REC-SVG-20010904/DTD/svg10.dtd">
<svg version="1.0" xmlns="http://www.w3.org/2000/svg"
 width="400.000000pt" height="200.000000pt" viewBox="0 0 400.000000 200.000000"
 preserveAspectRatio="xMidYMid meet">

<g transform="translate(0.000000,200.000000) scale(0.100000,-0.100000)"
fill="#000000" stroke="none">
<path d="M1625 1910 c-22 -4 -30 -8 -17 -9 12 0 22 -5 22 -10 0 -11 -30 -25
-49 -22 -7 1 -10 -2 -6 -8 3 -6 13 -11 21 -11 8 0 22 -9 31 -20 10 -11 25 -20
35 -20 20 0 53 -44 44 -59 -3 -5 0 -11 6 -13 7 -3 -23 -17 -67 -31 -57 -19
-91 -25 -117 -21 -25 5 -38 3 -38 -5 0 -14 -27 -15 -32 -1 -1 5 -16 1 -33 -10
-16 -11 -37 -24 -45 -29 -8 -6 -42 -18 -75 -28 l-60 -18 -3 -208 c-2 -166 0
-208 10 -204 43 18 190 59 293 81 66 14 130 29 142 32 21 6 22 4 14 -24 -6
-20 -5 -34 2 -42 7 -6 -1 -5 -17 4 -65 33 -122 -33 -80 -93 14 -19 23 -22 55
-18 l38 5 0 -164 c1 -146 0 -164 -16 -172 -10 -6 -83 -15 -163 -22 -128 -11
-152 -11 -200 3 -30 9 -56 15 -57 13 -2 -1 11 -16 28 -32 21 -19 33 -25 36
-16 5 13 41 15 123 5 41 -5 50 -8 35 -15 -12 -5 26 -7 93 -5 l113 4 39 38 40
39 0 492 0 492 -25 43 c-14 24 -25 54 -25 67 0 24 -16 26 -95 12z m-106 -263
c13 4 13 3 2 -5 -16 -12 -41 -5 -41 11 0 8 3 8 11 0 6 -6 19 -9 28 -6z m-49
-2 c0 -8 -61 -37 -67 -32 -3 3 8 12 24 21 29 16 43 19 43 11z m97 -84 c-6 -22
-14 -38 -18 -35 -8 5 11 74 21 74 4 0 2 -18 -3 -39z m87 31 c-6 -4 -16 -16
-23 -27 -10 -17 -12 -17 -7 -2 3 10 6 23 6 28 0 5 8 9 18 9 10 0 13 -3 6 -8z
m-270 -18 c6 -15 8 -15 26 1 14 12 20 14 20 5 0 -10 3 -10 15 0 23 19 30 4 18
-40 -5 -22 -6 -40 -2 -40 5 0 9 6 9 13 0 7 7 22 15 33 13 18 14 17 12 -13 -2
-30 -24 -47 -54 -42 -9 1 -9 1 1 44 10 41 -8 20 -24 -27 -6 -21 -16 -38 -21
-38 -5 0 -4 11 1 26 12 31 13 54 1 54 -5 0 -11 -17 -15 -37 -7 -42 -22 -71
-31 -61 -4 3 -2 15 4 26 6 12 11 37 11 57 0 39 -20 55 -45 35 -15 -12 -22 0
-8 13 13 14 61 7 67 -9z m121 6 c3 -5 1 -10 -4 -10 -6 0 -11 5 -11 10 0 6 2
10 4 10 3 0 8 -4 11 -10z m28 -33 c-3 -21 -11 -37 -19 -37 -7 0 -11 6 -9 13
28 79 39 89 28 24z m64 8 c0 -8 -4 -15 -9 -15 -4 0 -8 7 -8 15 0 8 4 15 8 15
5 0 9 -7 9 -15z m-253 -17 c17 16 18 16 14 -3 -5 -29 -35 -31 -48 -3 -10 20
-9 21 3 6 13 -16 15 -16 31 0z m188 -48 c-34 -16 -75 -38 -90 -48 -29 -20
-123 -39 -104 -20 11 11 231 97 247 97 6 0 -18 -13 -53 -29z m58 -65 c11 -13
10 -14 -4 -9 -9 3 -16 10 -16 15 0 13 6 11 20 -6z m-80 -35 c5 0 11 7 13 15 4
11 4 10 3 -2 -2 -22 -30 -24 -32 -3 0 9 1 10 3 3 3 -7 8 -13 13 -13z m-57 -5
c-7 -21 -13 -19 -13 6 0 11 4 18 10 14 5 -3 7 -12 3 -20z m27 4 c0 -11 -4 -18
-10 -14 -5 3 -7 12 -3 20 7 21 13 19 13 -6z m-54 -9 c0 -11 -6 -22 -13 -24 -8
-4 -13 3 -13 19 0 14 6 25 13 25 7 0 13 -9 13 -20z m-56 -5 c-11 -13 -10 -14
5 -9 13 5 16 4 11 -4 -10 -16 -36 -15 -36 1 0 16 9 27 23 27 5 0 4 -7 -3 -15z
m177 -37 c-3 -7 -5 -2 -5 12 0 14 2 19 5 13 2 -7 2 -19 0 -25z m-37 -8 c-18
-11 -22 -7 -14 14 5 13 10 14 18 6 8 -8 7 -13 -4 -20z m-40 -1 c0 -11 -4 -18
-9 -15 -5 4 -12 0 -14 -6 -3 -7 -6 -1 -6 15 -1 18 4 27 14 27 8 0 15 -9 15
-21z m-45 1 c7 -12 -12 -40 -26 -40 -5 0 -9 11 -9 25 0 25 23 35 35 15z m215
-113 c-14 -7 -25 -18 -25 -24 0 -6 -3 -15 -7 -19 -12 -11 -10 14 2 37 6 10 21
19 33 19 21 0 21 -1 -3 -13z m-9 -74 c13 -16 12 -17 -3 -4 -17 13 -22 21 -14
21 2 0 10 -8 17 -17z"/>
<path d="M3295 1802 c-13 -2 -28 -22 -45 -59 l-24 -57 -1 -473 c0 -372 3 -474
13 -478 7 -2 42 -7 78 -11 49 -5 64 -10 60 -20 -4 -11 10 -14 62 -16 144 -3
202 4 202 27 0 7 7 15 15 19 13 5 15 67 15 480 l0 475 -24 54 c-18 42 -30 56
-51 61 -27 7 -259 5 -300 -2z m41 -145 c-11 -86 -9 -169 5 -177 11 -7 10 -10
-4 -15 -13 -5 -14 -11 -7 -25 6 -12 6 -21 1 -25 -13 -7 -21 7 -21 36 0 13 -3
72 -7 131 -7 92 -6 108 7 111 24 6 30 -2 26 -36z m238 -59 c13 -103 14 -178 2
-179 -7 0 -6 -2 2 -6 6 -2 10 -9 6 -14 -3 -5 -1 -9 4 -9 11 0 11 -32 -1 -41
-7 -5 -11 -93 -5 -139 2 -19 -2 -26 -19 -28 -17 -3 -26 3 -33 23 -14 37 -12
43 6 20 15 -19 16 -18 10 15 -4 19 -12 54 -18 77 l-10 42 -73 3 -73 3 38 84
38 85 45 -95 44 -94 1 127 c1 128 6 168 22 168 5 0 11 -19 14 -42z m-248 -199
c10 -17 -13 -36 -27 -22 -12 12 -4 33 11 33 5 0 12 -5 16 -11z m-16 -49 c0 -5
-5 -10 -11 -10 -5 0 -7 -5 -3 -12 4 -7 3 -8 -4 -4 -6 4 -9 13 -5 21 6 17 23
20 23 5z m305 -20 c-3 -5 -12 -10 -18 -10 -7 0 -6 4 3 10 19 12 23 12 15 0z
m-325 -34 c0 -3 -4 -8 -10 -11 -5 -3 -10 -1 -10 4 0 6 5 11 10 11 6 0 10 -2
10 -4z m45 -39 c-20 -49 -19 -60 5 -54 11 3 18 1 14 -4 -9 -15 -44 -10 -44 6
0 18 31 97 36 92 3 -2 -3 -20 -11 -40z m245 -128 c0 -10 -23 -17 -37 -11 -23
8 -14 22 12 20 14 -1 25 -6 25 -9z m39 -423 c-7 -8 -98 -10 -105 -3 -4 4 19 7
51 7 32 0 56 -2 54 -4z"/>
<path d="M1681 1764 c0 -11 3 -14 6 -6 3 7 2 16 -1 19 -3 4 -6 -2 -5 -13z"/>
<path d="M1539 1723 c-13 -16 -12 -17 4 -4 9 7 17 15 17 17 0 8 -8 3 -21 -13z"/>
<path d="M513 1433 c26 -2 68 -2 95 0 26 2 4 3 -48 3 -52 0 -74 -1 -47 -3z"/>
<path d="M368 1423 c7 -3 16 -2 19 1 4 3 -2 6 -13 5 -11 0 -14 -3 -6 -6z"/>
<path d="M718 1423 c6 -2 18 -2 25 0 6 3 1 5 -13 5 -14 0 -19 -2 -12 -5z"/>
<path d="M2349 1409 c-1 -2 -3 -15 -4 -29 -2 -14 -5 -30 -7 -37 -2 -6 2 -11 7
-11 6 0 9 3 8 7 -1 4 5 8 13 8 12 0 11 -3 -2 -18 -9 -10 -21 -16 -27 -13 -28
10 -37 -50 -37 -251 0 -111 -3 -278 -7 -371 l-8 -169 -5 120 -6 120 -2 -127
c-1 -80 2 -128 8 -128 6 0 9 -54 8 -147 l-2 -148 -6 145 -6 145 -2 -121 -2
-122 -54 -4 c-90 -7 -108 -41 -38 -71 109 -47 184 -61 327 -61 155 0 191 8
245 56 19 17 30 28 24 25 -52 -29 -352 -23 -382 7 -22 22 -12 28 50 30 29 0
53 6 53 11 0 6 -6 9 -12 9 -7 -1 -11 2 -8 6 3 5 1 11 -5 15 -5 3 -10 1 -10 -4
0 -6 -9 -11 -21 -11 -11 0 -18 4 -15 9 3 5 -4 11 -15 14 -18 5 -19 9 -9 27 6
12 9 28 6 36 -3 8 1 14 9 14 19 0 19 17 1 36 -11 11 -16 11 -19 1 -3 -6 -6 -1
-6 13 -1 14 -4 35 -7 47 -6 23 -5 23 77 23 65 0 80 3 71 12 -7 7 -12 31 -12
55 0 43 0 43 38 43 56 0 65 10 65 73 0 30 -4 60 -7 66 -5 7 -47 11 -114 12
-59 0 -114 3 -122 7 -10 5 -15 22 -16 50 -1 37 2 43 23 48 12 4 23 9 23 13 0
4 9 7 20 7 13 0 20 -7 20 -18 0 -22 18 -24 27 -2 3 9 16 26 28 38 19 19 24 20
32 7 6 -9 14 -11 22 -7 11 7 11 10 0 17 -11 6 -9 13 9 29 28 27 29 60 2 60
-14 0 -26 -11 -35 -32 -13 -31 -13 -32 -17 -8 -2 19 -8 24 -23 22 -11 -2 -22
-7 -25 -11 -3 -4 -14 -7 -25 -8 -11 0 -32 -3 -47 -6 -23 -5 -28 -2 -28 14 0
13 -4 18 -12 13 -7 -5 -8 -3 -2 7 11 18 15 109 4 109 -4 0 -6 8 -3 18 4 16 12
18 58 14 48 -4 59 -1 101 28 29 19 50 28 52 21 8 -24 19 -9 16 21 -2 18 1 35
8 39 8 5 -3 22 -35 53 -49 47 -59 78 -29 95 13 8 -2 11 -58 11 -41 0 -85 3
-97 6 -13 4 -24 5 -24 3z m90 -22 c-2 -1 -12 -9 -22 -16 -15 -12 -17 -12 -11
3 3 9 13 16 22 16 8 0 13 -1 11 -3z m59 -48 c2 -19 -2 -28 -15 -32 -10 -2 -26
-8 -35 -12 -14 -6 -18 -2 -18 18 0 44 10 58 39 55 20 -2 27 -9 29 -29z m-78
-9 c0 -11 -7 -20 -15 -20 -17 0 -18 2 -9 24 9 23 24 20 24 -4z m-42 -32 c-2
-6 -10 -14 -16 -16 -7 -2 -10 2 -6 12 7 18 28 22 22 4z m140 -7 c1 0 -2 -10
-8 -21 -9 -17 -8 -19 7 -13 16 6 16 5 4 -10 -7 -9 -19 -17 -25 -17 -12 0 -38
55 -30 63 4 4 43 2 52 -2z m-118 -12 c0 -5 4 -8 9 -5 14 9 40 -4 52 -25 8 -16
5 -21 -18 -30 -18 -7 -29 -7 -31 0 -2 5 -10 7 -18 4 -10 -4 -14 4 -14 31 0 20
5 36 10 36 6 0 10 -5 10 -11z m168 -53 c-11 -20 -11 -20 -19 -1 -4 11 -8 31
-8 45 l-1 25 19 -25 c15 -19 17 -29 9 -44z m-203 14 c3 -5 1 -10 -4 -10 -6 0
-11 5 -11 10 0 6 2 10 4 10 3 0 8 -4 11 -10z m33 -43 c16 6 15 5 -1 -14 -9
-11 -14 -23 -10 -28 5 -4 2 -5 -4 -1 -7 4 -13 19 -12 34 0 15 3 22 5 15 3 -7
13 -9 22 -6z m121 -1 c10 -12 8 -17 -8 -26 -12 -6 -21 -7 -21 -1 0 5 -3 16 -6
25 -8 20 19 21 35 2z m-61 -8 c8 -8 6 -16 -10 -30 -25 -22 -48 -23 -48 -4 0
22 18 29 23 9 3 -11 5 -8 6 10 1 29 10 34 29 15z m109 -220 c-3 -8 -6 -5 -6 6
-1 11 2 17 5 13 3 -3 4 -12 1 -19z m-110 -40 c-3 -8 -6 -5 -6 6 -1 11 2 17 5
13 3 -3 4 -12 1 -19z m-60 -20 c-3 -7 -5 -2 -5 12 0 14 2 19 5 13 2 -7 2 -19
0 -25z m-19 -265 c-1 -101 -5 -89 -10 30 -2 37 0 67 5 67 4 0 6 -44 5 -97z
m157 32 c0 -49 -3 -60 -17 -63 -16 -3 -18 5 -18 63 0 58 2 66 18 63 14 -3 17
-14 17 -63z m-28 -122 c-3 -10 -5 -4 -5 12 0 17 2 24 5 18 2 -7 2 -21 0 -30z"/>
<path d="M2513 675 c0 -33 2 -45 4 -27 2 18 2 45 0 60 -2 15 -4 0 -4 -33z"/>
<path d="M2548 1353 c13 -10 35 -28 49 -40 25 -22 80 -33 68 -14 -3 5 3 12 12
15 10 2 1 2 -20 -1 -25 -4 -44 -1 -55 9 -9 8 -30 22 -47 32 -29 16 -29 16 -7
-1z"/>
<path d="M590 1352 c0 -5 7 -9 15 -9 8 0 15 4 15 9 0 4 -7 8 -15 8 -8 0 -15
-4 -15 -8z"/>
<path d="M332 1302 c-13 -4 87 -7 222 -7 135 0 238 3 228 7 -22 8 -419 8 -450
0z"/>
<path d="M2700 1280 c-8 -5 -12 -12 -9 -15 4 -3 12 1 19 10 14 17 11 19 -10 5z"/>
<path d="M2680 1219 c0 -5 5 -7 10 -4 6 3 10 8 10 11 0 2 -4 4 -10 4 -5 0 -10
-5 -10 -11z"/>
<path d="M1560 1210 c-13 -8 -12 -10 3 -10 9 0 17 5 17 10 0 12 -1 12 -20 0z"/>
<path d="M1558 1183 c7 -3 16 -2 19 1 4 3 -2 6 -13 5 -11 0 -14 -3 -6 -6z"/>
<path d="M1525 1140 c-3 -5 -1 -10 4 -10 6 0 11 5 11 10 0 6 -2 10 -4 10 -3 0
-8 -4 -11 -10z"/>
<path d="M2510 1079 c0 -5 -5 -7 -11 -3 -8 4 -8 0 0 -15 14 -25 71 -30 71 -6
0 9 -6 12 -15 9 -8 -4 -15 -1 -15 6 0 10 -3 10 -15 0 -13 -11 -14 -10 -9 4 3
9 3 16 0 16 -3 0 -6 -5 -6 -11z"/>
<path d="M2687 1023 c-6 -10 -10 -52 -7 -78 2 -11 6 3 10 30 7 50 6 63 -3 48z"/>
<path d="M2712 1010 c0 -14 2 -19 5 -12 2 6 2 18 0 25 -3 6 -5 1 -5 -13z"/>
<path d="M2607 1003 c-11 -18 -18 -93 -9 -93 5 0 12 21 16 47 6 45 3 63 -7 46z"/>
<path d="M2653 970 c0 -25 2 -35 4 -22 2 12 2 32 0 45 -2 12 -4 2 -4 -23z"/>
<path d="M2700 954 c0 -8 5 -12 10 -9 6 3 10 10 10 16 0 5 -4 9 -10 9 -5 0
-10 -7 -10 -16z"/>
<path d="M580 921 c0 -5 5 -13 10 -16 6 -3 10 -2 10 4 0 5 -4 13 -10 16 -5 3
-10 2 -10 -4z"/>
<path d="M506 905 c-3 -9 -6 -22 -5 -28 0 -7 5 -1 10 12 5 13 8 26 5 28 -2 2
-6 -3 -10 -12z"/>
<path d="M595 881 c-6 -5 -19 -11 -30 -14 -13 -3 -9 -5 13 -6 22 -1 32 4 32
14 0 17 -2 18 -15 6z"/>
<path d="M472 818 c-7 -7 -12 -16 -12 -22 0 -5 6 -2 13 7 9 12 32 17 87 20
l75 3 -75 2 c-48 1 -80 -2 -88 -10z"/>
<path d="M1585 821 c-3 -5 -1 -12 5 -16 5 -3 10 1 10 9 0 18 -6 21 -15 7z"/>
<path d="M1630 814 c0 -8 5 -12 10 -9 6 3 10 10 10 16 0 5 -4 9 -10 9 -5 0
-10 -7 -10 -16z"/>
<path d="M1505 810 c-3 -5 -1 -10 4 -10 6 0 11 5 11 10 0 6 -2 10 -4 10 -3 0
-8 -4 -11 -10z"/>
<path d="M1550 810 c-13 -8 -12 -10 3 -10 9 0 17 5 17 10 0 12 -1 12 -20 0z"/>
<path d="M2728 748 c-18 -15 -33 -68 -19 -68 5 0 12 -17 16 -37 5 -21 10 -47
13 -58 3 -11 6 -34 6 -51 1 -22 5 -30 14 -26 10 3 12 14 8 35 -3 16 -6 72 -6
123 0 52 -4 94 -8 94 -5 0 -15 -6 -24 -12z"/>
<path d="M441 684 c0 -11 3 -14 6 -6 3 7 2 16 -1 19 -3 4 -6 -2 -5 -13z"/>
<path d="M470 690 c0 -5 5 -10 11 -10 5 0 7 5 4 10 -3 6 -8 10 -11 10 -2 0 -4
-4 -4 -10z"/>
<path d="M545 691 c-6 -11 13 -26 22 -17 4 3 0 6 -8 6 -11 0 -11 2 1 10 9 6
10 10 3 10 -6 0 -14 -4 -18 -9z"/>
<path d="M538 643 c7 -3 16 -2 19 1 4 3 -2 6 -13 5 -11 0 -14 -3 -6 -6z"/>
<path d="M583 643 c9 -2 23 -2 30 0 6 3 -1 5 -18 5 -16 0 -22 -2 -12 -5z"/>
<path d="M2783 555 c0 -22 2 -30 4 -17 2 12 2 30 0 40 -3 9 -5 -1 -4 -23z"/>
<path d="M2650 510 c0 -6 7 -10 15 -10 8 0 15 2 15 4 0 2 -7 6 -15 10 -8 3
-15 1 -15 -4z"/>
<path d="M431 464 c0 -11 3 -14 6 -6 3 7 2 16 -1 19 -3 4 -6 -2 -5 -13z"/>
<path d="M456 465 c-3 -9 0 -15 9 -15 9 0 12 6 9 15 -4 8 -7 15 -9 15 -2 0 -5
-7 -9 -15z"/>
<path d="M510 466 c0 -9 5 -16 10 -16 6 0 10 4 10 9 0 6 -4 13 -10 16 -5 3
-10 -1 -10 -9z"/>
<path d="M540 471 c0 -5 7 -11 15 -15 8 -3 15 -1 15 3 0 5 -7 11 -15 15 -8 3
-15 1 -15 -3z"/>
<path d="M580 459 c0 -11 5 -17 10 -14 6 4 7 12 3 18 -4 7 0 6 10 -2 9 -7 17
-9 17 -3 0 8 -22 22 -36 22 -2 0 -4 -9 -4 -21z"/>
<path d="M670 460 c0 -5 5 -10 10 -10 6 0 10 5 10 10 0 6 -4 10 -10 10 -5 0
-10 -4 -10 -10z"/>
<path d="M2543 436 c1 -6 -8 -10 -23 -8 -67 7 -75 6 -74 -5 1 -7 2 -22 3 -33
0 -12 8 -20 18 -20 13 0 14 -3 5 -12 -21 -21 -13 -25 58 -25 38 0 67 4 64 8
-3 5 1 9 8 10 7 0 4 4 -7 9 -16 7 -17 9 -3 9 20 1 17 29 -5 46 -9 7 -14 14
-11 17 2 3 -4 8 -15 11 -12 3 -19 0 -18 -7z m56 -39 c-2 -1 -12 -9 -22 -16
-15 -12 -17 -12 -11 3 3 9 13 16 22 16 8 0 13 -1 11 -3z"/>
<path d="M453 393 c9 -2 23 -2 30 0 6 3 -1 5 -18 5 -16 0 -22 -2 -12 -5z"/>
<path d="M518 393 c7 -3 16 -2 19 1 4 3 -2 6 -13 5 -11 0 -14 -3 -6 -6z"/>
<path d="M628 393 c7 -3 16 -2 19 1 4 3 -2 6 -13 5 -11 0 -14 -3 -6 -6z"/>
<path d="M400 326 c0 -2 14 -6 30 -8 17 -3 30 -1 30 4 0 4 -13 8 -30 8 -16 0
-30 -2 -30 -4z"/>
<path d="M550 318 c0 -4 7 -8 15 -8 8 0 15 4 15 8 0 5 -7 9 -15 9 -8 0 -15 -4
-15 -9z"/>
<path d="M590 318 c0 -4 9 -8 20 -8 11 0 20 4 20 8 0 4 -9 8 -20 8 -11 0 -20
-4 -20 -8z"/>
<path d="M503 313 c9 -2 23 -2 30 0 6 3 -1 5 -18 5 -16 0 -22 -2 -12 -5z"/>
<path d="M758 295 c-3 -4 -100 -6 -214 -7 -154 -1 -197 -3 -164 -10 61 -12
381 -4 406 10 19 11 18 11 -2 12 -11 0 -23 -2 -26 -5z"/>
<path d="M2556 282 c-4 -4 -12 -7 -18 -7 -6 0 -12 -8 -14 -17 -3 -20 11 -24
22 -7 4 7 9 8 13 1 3 -6 18 -8 33 -5 15 3 26 9 23 13 -3 5 -15 6 -27 2 -14 -3
-19 -1 -14 6 7 12 -8 25 -18 14z"/>
<path d="M328 228 c7 -27 29 -31 207 -36 187 -4 238 3 240 33 1 19 -7 20 -225
20 -208 0 -226 -1 -222 -17z m129 -4 c-3 -3 -12 -4 -19 -1 -8 3 -5 6 6 6 11 1
17 -2 13 -5z"/>
</g>
</svg>
