<?xml version="1.0" standalone="no"?>
<!DOCTYPE svg PUBLIC "-//W3C//DTD SVG 20010904//EN"
 "http://www.w3.org/TR/2001/REC-SVG-20010904/DTD/svg10.dtd">
<svg version="1.0" xmlns="http://www.w3.org/2000/svg"
 width="400.000000pt" height="200.000000pt" viewBox="0 0 400.000000 200.000000"
 preserveAspectRatio="xMidYMid meet">

<g transform="translate(0.000000,200.000000) scale(0.100000,-0.100000)"
fill="#000000" stroke="none">
<path d="M891 1768 c-1 -100 -4 -184 -6 -186 -2 -2 -20 -4 -40 -5 -40 -1 -40
-1 -50 -107 -9 -96 -39 -213 -85 -336 -68 -177 -70 -194 -70 -615 0 -344 2
-379 18 -398 14 -18 34 -24 117 -32 92 -10 232 -6 314 8 58 10 61 28 61 413 0
199 -5 371 -11 413 -6 40 -33 133 -61 207 -82 222 -97 317 -101 645 l-2 170
-41 3 -41 3 -2 -183z m-54 -305 c-2 -16 -4 -3 -4 27 0 30 2 43 4 28 2 -16 2
-40 0 -55z m-10 -95 c-2 -13 -4 -5 -4 17 -1 22 1 32 4 23 2 -10 2 -28 0 -40z
m-10 -65 c-3 -10 -5 -4 -5 12 0 17 2 24 5 18 2 -7 2 -21 0 -30z m-10 -60 c-3
-10 -5 -4 -5 12 0 17 2 24 5 18 2 -7 2 -21 0 -30z m-11 -70 c-9 -79 -22 -123
-38 -123 -6 0 -7 8 -3 18 4 9 14 47 23 84 10 38 18 68 20 68 2 0 1 -21 -2 -47z
m-36 -147 c0 -3 -4 -8 -10 -11 -5 -3 -10 -1 -10 4 0 6 5 11 10 11 6 0 10 -2
10 -4z m134 -509 c7 -6 6 -7 -4 -4 -8 2 -16 14 -17 28 -1 19 -1 20 4 4 3 -11
10 -24 17 -28z m-94 26 c0 -3 -7 -11 -15 -19 -13 -14 -15 -13 -15 4 0 10 7 19
15 19 8 0 15 -2 15 -4z m48 -26 c12 -3 10 -5 -5 -6 -18 -1 -23 4 -22 22 1 15
3 17 6 5 2 -9 12 -19 21 -21z m-43 -37 l-20 -9 20 -1 c17 -2 17 -3 3 -7 -10
-2 -18 -8 -18 -13 0 -5 8 -11 18 -13 13 -4 11 -5 -5 -6 -19 -1 -23 4 -23 29 0
25 4 30 23 29 21 0 21 -1 2 -9z m75 6 c0 -2 -9 -6 -20 -9 -11 -3 -20 -1 -20 4
0 5 9 9 20 9 11 0 20 -2 20 -4z"/>
<path d="M3060 1920 c-12 -7 -15 -43 -17 -187 -2 -98 -6 -211 -9 -252 l-6 -74
-63 -61 c-44 -42 -67 -74 -75 -102 -10 -32 -10 -130 -1 -440 6 -219 11 -467
11 -551 0 -121 3 -155 15 -166 8 -9 44 -19 81 -22 74 -8 310 -1 336 9 21 9 25
76 37 670 5 294 5 472 -1 495 -6 23 -30 55 -67 91 -32 30 -61 64 -66 75 -5 11
-11 129 -14 263 -5 201 -9 244 -21 252 -19 12 -121 13 -140 0z m48 -318 c2 -7
-3 -12 -12 -12 -9 0 -16 7 -16 16 0 17 22 14 28 -4z m0 -104 c-2 -38 -8 -63
-15 -66 -10 -3 -13 14 -13 62 0 53 3 66 15 66 13 0 15 -11 13 -62z m-37 -268
c4 -14 7 -44 8 -67 l1 -43 -45 0 -45 0 0 52 c0 34 6 58 17 70 23 25 55 19 64
-12z m-3 -137 c-15 -2 -42 -2 -60 0 -18 2 -6 4 27 4 33 0 48 -2 33 -4z m29
-89 c-3 -3 -12 -4 -19 -1 -8 3 -5 6 6 6 11 1 17 -2 13 -5z m-34 -371 c-13 -2
-35 -2 -50 0 -16 2 -5 4 22 4 28 0 40 -2 28 -4z m15 -290 l-3 -268 -34 3 c-19
1 -36 4 -37 5 -2 2 -4 121 -6 265 l-3 262 43 0 42 0 -2 -267z"/>
<path d="M1973 1901 c21 -8 24 -21 7 -31 -8 -5 -6 -12 6 -24 12 -13 14 -20 5
-25 -8 -5 -13 -79 -16 -250 -4 -205 -3 -240 9 -229 7 7 23 20 35 28 22 15 22
19 20 248 -2 193 0 235 12 243 10 6 10 9 2 9 -7 0 -13 6 -13 14 0 8 6 17 13
19 6 3 -13 5 -43 6 -32 0 -48 -3 -37 -8z"/>
<path d="M1926 1485 c-4 -38 -14 -101 -22 -139 -8 -38 -12 -71 -10 -73 10 -11
52 245 43 269 -2 7 -7 -18 -11 -57z"/>
<path d="M2093 1495 c0 -33 2 -45 4 -27 2 18 2 45 0 60 -2 15 -4 0 -4 -33z"/>
<path d="M2101 1394 c-2 -52 91 -355 105 -341 2 2 -14 55 -36 118 -22 62 -46
143 -54 179 -8 36 -14 55 -15 44z"/>
<path d="M1848 1167 c-50 -125 -54 -142 -19 -77 28 51 66 158 59 165 -2 2 -20
-38 -40 -88z"/>
<path d="M1778 930 c-4 -14 -8 -45 -8 -70 1 -35 3 -41 11 -27 5 9 9 41 7 70
-2 41 -5 47 -10 27z"/>
<path d="M2233 875 c0 -33 2 -45 4 -27 2 18 2 45 0 60 -2 15 -4 0 -4 -33z"/>
<path d="M1991 466 c-1 -16 -4 -17 -13 -8 -19 19 -30 14 -17 -9 9 -17 8 -23
-2 -30 -11 -7 -11 -9 2 -9 24 0 41 25 36 52 -3 18 -5 19 -6 4z"/>
<path d="M2090 405 c0 -3 7 -14 16 -23 15 -14 16 -14 13 3 -4 17 -29 35 -29
20z"/>
<path d="M1857 220 c-10 -12 -29 -20 -47 -20 -31 0 -36 -6 -22 -27 21 -34 307
-50 386 -22 50 18 59 39 18 39 -21 0 -37 8 -50 25 -11 14 -22 25 -25 25 -2 0
-2 -11 1 -25 2 -14 1 -25 -2 -25 -4 0 -11 11 -16 25 -9 24 -12 25 -105 25 -88
0 -95 -1 -95 -20 0 -11 -5 -20 -11 -20 -6 0 -9 9 -6 20 3 11 2 20 -2 20 -3 0
-14 -9 -24 -20z"/>
</g>
</svg>
